<?xml version="1.0" encoding="iso-8859-1"?>
<!-- Generator: Adobe Illustrator 19.0.0, SVG Export Plug-In . SVG Version: 6.00 Build 0)  -->
<svg version="1.1" id="Capa_1" xmlns="http://www.w3.org/2000/svg" xmlns:xlink="http://www.w3.org/1999/xlink" x="0px" y="0px"
	 viewBox="0 0 512.124 512.124" style="enable-background:new 0 0 512.124 512.124;" xml:space="preserve">
<g transform="translate(-1 -1)">
	<path style="fill:#FFA800;" d="M428.497,394.197c-1.707,1.963-3.499,3.925-5.291,5.888c-3.584,3.925-7.339,7.935-11.264,11.86
		c-3.925,3.925-7.936,7.681-11.861,11.265c-1.963,1.792-3.925,3.584-5.888,5.291c-133.205,114.859-259.157,25.173-294.144,60.075
		c-16.509,18.492-44.424,21.272-64.256,6.4c-1.071-1.645-2.04-3.355-2.901-5.12c-6.4-13.056-10.24-34.219,11.947-56.492
		c36.523-36.436-51.115-160.426,88.491-300.031s263.595-51.969,300.032-88.491c10.815-12.599,27.363-18.729,43.776-16.213
		c6.353,1.211,12.411,3.646,17.835,7.169c14.872,19.832,12.091,47.746-6.4,64.255C453.67,135.039,543.355,260.991,428.497,394.197z"
		/>
	<path style="fill:#FFFFFF;" d="M465.019,85.034c-36.437,36.523,51.2,160.427-88.491,300.032
		c-139.605,139.691-263.509,52.053-300.032,88.491c-10.758,12.58-27.233,18.738-43.605,16.299c-1.939-0.343-3.85-0.828-5.717-1.451
		c-0.512-0.426-0.768-0.683-0.768-0.683s-37.291-37.292-0.853-73.644c35.925-36.011-60.16-168.448,70.827-306.004
		c1.024-1.025,2.048-2.048,3.072-3.158c0.939-0.937,1.877-1.877,2.816-2.73c1.621-1.622,3.243-3.157,4.779-4.607
		c2.389-2.219,4.779-4.352,7.083-6.485c29.087-26.713,63.827-46.519,101.632-57.942c2.475-0.769,4.949-1.365,7.425-1.963
		c90.538-21.504,165.205,19.968,190.89-5.632c12.539-14.525,32.783-19.73,50.773-13.056c1.071,0.825,2.097,1.708,3.072,2.645
		c3.727,4.01,6.833,8.555,9.216,13.483C483.366,41.77,487.206,62.847,465.019,85.034z"/>
	<path style="fill:#FFE100;" d="M389.329,397.866c-139.613,139.613-261.463,54.09-297.934,90.56
		c-36.399,36.399-69.246,3.553-69.246,3.553s-32.847-32.847,3.553-69.246c36.47-36.47-49.053-158.321,90.56-297.933
		s261.463-54.09,297.933-90.56c36.399-36.399,69.246-3.553,69.246-3.553s32.847,32.847-3.553,69.246
		C443.418,136.403,528.942,258.253,389.329,397.866z"/>
	<g>
		<path d="M65.179,513.124c-16.846-0.562-32.853-7.485-44.8-19.375c-14.975-14.975-34.425-52.167-0.858-85.733
			c9.342-9.342,6.3-31.792,2.442-60.217c-7.783-57.333-19.541-143.975,56.692-232.825c1.986-2.313,5.055-3.391,8.051-2.828
			c2.996,0.563,5.465,2.682,6.475,5.558c1.01,2.876,0.41,6.073-1.576,8.387C20.362,209.124,31.062,287.949,38.87,345.508
			c4.492,33.1,8.042,59.25-7.283,74.575c-29.308,29.308-2.3,58.4,0.883,61.617c3.167,3.142,32.258,30.158,61.575,0.842
			c15.325-15.325,41.467-11.775,74.575-7.283c62.408,8.467,147.9,20.067,237.3-69.333c89.408-89.4,77.8-174.883,69.333-237.3
			c-4.492-33.1-8.042-59.25,7.283-74.575c29.308-29.308,2.3-58.4-0.883-61.617c-3.167-3.142-32.267-30.15-61.575-0.842
			c-15.317,15.317-41.483,11.775-74.575,7.283c-52.342-7.108-123.991-16.825-199.892,37.4c-3.834,2.738-9.162,1.85-11.9-1.984
			c-2.738-3.834-1.85-9.162,1.984-11.9c81.383-58.158,160.05-47.483,212.1-40.425c28.433,3.842,50.875,6.892,60.217-2.442
			c33.567-33.583,70.75-14.125,85.733,0.858c14.975,14.975,34.425,52.167,0.858,85.733c-9.342,9.342-6.3,31.792-2.442,60.217
			c8.45,62.234,21.208,156.275-74.175,251.658c-95.375,95.375-189.425,82.633-251.658,74.175c-28.417-3.85-50.875-6.9-60.217,2.442
			C95.583,506.13,80.785,512.824,65.179,513.124z"/>
		<path d="M110.287,101.757c-1.115-0.014-2.216-0.246-3.242-0.683c-1.035-0.432-1.987-1.038-2.817-1.792
			c-1.606-1.605-2.498-3.789-2.475-6.059c0.014-0.573,0.07-1.144,0.167-1.708c0.096-0.534,0.271-1.05,0.517-1.533
			c0.183-0.544,0.441-1.061,0.767-1.533c0.314-0.449,0.656-0.878,1.025-1.283c3.421-3.158,8.695-3.158,12.117,0
			c0.341,0.425,0.683,0.85,1.025,1.283c0.326,0.473,0.584,0.989,0.767,1.533c0.246,0.483,0.42,1,0.517,1.533
			c0.097,0.565,0.152,1.136,0.167,1.708c0.023,2.27-0.869,4.454-2.475,6.059c-0.829,0.754-1.782,1.36-2.817,1.792
			C112.504,101.512,111.402,101.744,110.287,101.757z"/>
		<path d="M294.237,67.916c-0.15,0-0.3,0-0.45-0.009c-4.058-0.217-8.164-0.336-12.317-0.358c-4.158,0-8.3,0.05-12.517,0.258
			c-3.057,0.171-5.972-1.308-7.639-3.877c-1.667-2.569-1.829-5.834-0.427-8.555c1.403-2.722,4.156-4.484,7.215-4.617
			c4.533-0.217,9-0.267,13.467-0.275c4.417,0.025,8.775,0.158,13.1,0.375c4.618,0.241,8.205,4.117,8.087,8.74
			C302.64,64.221,298.862,67.91,294.237,67.916L294.237,67.916z"/>
		<path d="M81.695,194.099c-1.393,0.002-2.764-0.341-3.992-1c-2-1.059-3.497-2.87-4.16-5.033c-0.663-2.164-0.437-4.502,0.627-6.5
			c2.717-5.117,5.683-10.208,8.825-15.133c3.25-5.108,6.808-10.242,10.558-15.242c3.8-5.075,7.983-10.242,12.433-15.35
			c4.492-5.158,9.35-10.35,14.425-15.425c5.075-5.075,10.267-9.933,15.425-14.425c5.108-4.45,10.275-8.633,15.358-12.442
			c4.992-3.742,10.125-7.3,15.25-10.558c4.908-3.133,10-6.1,15.117-8.817c4.958-2.633,10-5.05,14.983-7.192
			c4.933-2.133,9.908-4.05,14.8-5.708c4.783-1.625,9.7-3.083,14.592-4.325c2.953-0.753,6.084,0.126,8.213,2.307
			c2.129,2.181,2.933,5.332,2.108,8.267c-0.824,2.934-3.152,5.206-6.105,5.959c-4.467,1.142-8.95,2.467-13.317,3.958
			c-4.467,1.508-9.025,3.267-13.542,5.208c-4.567,1.975-9.192,4.192-13.742,6.6c-4.708,2.5-9.4,5.242-13.942,8.133
			c-4.767,3.033-9.525,6.333-14.175,9.825c-4.758,3.558-9.6,7.475-14.383,11.65c-4.875,4.242-9.775,8.825-14.575,13.625
			c-4.8,4.8-9.383,9.7-13.625,14.575c-4.175,4.783-8.092,9.625-11.642,14.375c-3.5,4.658-6.8,9.417-9.825,14.167
			c-2.9,4.558-5.642,9.25-8.15,13.967C87.759,192.359,84.856,194.104,81.695,194.099z"/>
		<path d="M214.395,453.591c-1.115-0.014-2.216-0.246-3.242-0.683c-1.033-0.435-1.985-1.041-2.817-1.792
			c-2.444-2.445-3.154-6.131-1.792-9.308c0.394-1.054,1.004-2.014,1.792-2.817c3.425-3.15,8.692-3.15,12.117,0
			c0.788,0.803,1.398,1.763,1.792,2.817c0.911,2.068,0.911,4.424,0,6.492c-0.434,1.034-1.04,1.986-1.792,2.817
			C218.847,452.718,216.665,453.61,214.395,453.591L214.395,453.591z"/>
		<path d="M250.829,441.466c-1.141-0.011-2.27-0.24-3.325-0.675c-1.041-0.415-1.975-1.059-2.733-1.883
			c-1.589-1.582-2.48-3.733-2.475-5.975c-0.015-1.137,0.189-2.265,0.6-3.325c0.445-1.022,1.081-1.95,1.875-2.733
			c0.782-0.796,1.71-1.432,2.733-1.875c2.106-0.85,4.46-0.85,6.567,0c1.024,0.443,1.952,1.079,2.733,1.875
			c0.82,0.761,1.461,1.694,1.875,2.733c0.442,1.053,0.674,2.183,0.683,3.325c-0.006,2.257-0.929,4.414-2.558,5.975
			C255.252,440.551,253.089,441.477,250.829,441.466z"/>
		<path d="M220.454,423.208c-2.27,0.022-4.453-0.87-6.058-2.475c-1.605-1.605-2.497-3.788-2.475-6.058
			c0.014-2.838,1.439-5.482,3.8-7.057c2.361-1.574,5.35-1.871,7.975-0.793c1.064,0.413,2.025,1.053,2.817,1.875
			c0.77,0.785,1.379,1.714,1.792,2.733c0.437,1.026,0.67,2.127,0.683,3.242c0.015,1.137-0.189,2.265-0.6,3.325
			c-0.911,2.084-2.592,3.735-4.692,4.608C222.667,423.022,221.564,423.226,220.454,423.208L220.454,423.208z"/>
		<path d="M184.012,435.407c-1.115-0.01-2.217-0.242-3.242-0.683c-1.021-0.443-1.947-1.08-2.725-1.875
			c-1.634-1.593-2.559-3.777-2.567-6.059c0.022-1.114,0.254-2.214,0.683-3.242c0.414-1.041,1.058-1.975,1.883-2.733
			c2.008-2.01,4.893-2.874,7.675-2.3c0.521,0.102,1.034,0.244,1.533,0.425c0.6,0.258,1.025,0.517,1.542,0.767
			c0.445,0.345,0.871,0.715,1.275,1.108c0.796,0.783,1.436,1.711,1.883,2.733c0.408,1.031,0.609,2.133,0.592,3.242
			c0.026,1.139-0.175,2.272-0.592,3.333c-0.448,1.02-1.087,1.945-1.883,2.725c-0.779,0.795-1.704,1.432-2.725,1.875
			C186.289,435.166,185.157,435.399,184.012,435.407z"/>
		<path d="M244.77,398.974c-1.143-0.005-2.273-0.237-3.325-0.683c-1.04-0.412-1.974-1.053-2.733-1.875
			c-1.6-1.574-2.493-3.73-2.475-5.975c-0.015-1.137,0.189-2.265,0.6-3.325c1.072-2.65,3.409-4.58,6.214-5.131
			c2.805-0.551,5.699,0.351,7.694,2.398c1.635,1.575,2.558,3.747,2.558,6.017s-0.924,4.442-2.558,6.017
			c-0.759,0.822-1.693,1.463-2.733,1.875C246.987,398.728,245.885,398.96,244.77,398.974L244.77,398.974z"/>
		<path d="M275.062,417.149c-2.243,0.024-4.399-0.87-5.967-2.475c-1.835-1.793-2.759-4.322-2.511-6.876s1.64-4.858,3.786-6.265
			c0.434-0.339,0.925-0.599,1.45-0.767c0.509-0.26,1.059-0.432,1.625-0.508c1.093-0.258,2.232-0.258,3.325,0
			c0.564,0.089,1.111,0.26,1.625,0.508c0.516,0.188,1.004,0.446,1.45,0.767l1.275,1.025c0.785,0.824,1.422,1.777,1.883,2.817
			c1.084,2.64,0.777,5.647-0.819,8.014C280.589,415.755,277.916,417.166,275.062,417.149L275.062,417.149z"/>
	</g>
</g>
<g>
</g>
<g>
</g>
<g>
</g>
<g>
</g>
<g>
</g>
<g>
</g>
<g>
</g>
<g>
</g>
<g>
</g>
<g>
</g>
<g>
</g>
<g>
</g>
<g>
</g>
<g>
</g>
<g>
</g>
</svg>
