<?xml version="1.0" standalone="no"?>
<!DOCTYPE svg PUBLIC "-//W3C//DTD SVG 20010904//EN"
 "http://www.w3.org/TR/2001/REC-SVG-20010904/DTD/svg10.dtd">
<svg version="1.0" xmlns="http://www.w3.org/2000/svg"
 width="700.000000pt" height="700.000000pt" viewBox="0 0 700.000000 700.000000"
 preserveAspectRatio="xMidYMid meet">
<metadata>
Created by potrace 1.11, written by Peter Selinger 2001-2013
</metadata>
<g transform="translate(0.000000,700.000000) scale(0.100000,-0.100000)"
fill="#000000" stroke="none">
<path d="M5955 6980 c-134 -35 -244 -97 -366 -206 -102 -90 -134 -99 -364 -98
-161 0 -233 6 -470 38 -880 117 -1355 102 -1920 -61 -220 -63 -478 -174 -700
-301 -149 -85 -314 -201 -330 -232 -42 -81 14 -170 109 -170 26 0 62 18 153
78 333 219 607 342 978 436 241 62 482 88 800 87 249 0 412 -14 865 -73 277
-37 340 -42 520 -42 182 -1 213 1 280 21 96 28 140 53 235 134 41 35 102 80
135 100 162 99 370 89 555 -26 104 -65 148 -107 211 -201 69 -104 105 -203
112 -306 9 -148 -36 -260 -168 -414 -78 -91 -110 -150 -146 -269 -24 -79 -27
-112 -31 -265 -3 -112 1 -254 12 -395 35 -464 31 -895 -11 -1180 -97 -656
-391 -1258 -895 -1830 -105 -120 -362 -375 -474 -471 -547 -471 -1098 -743
-1732 -854 -250 -44 -390 -39 -973 37 -321 42 -375 47 -565 47 -187 1 -218 -1
-285 -21 -95 -27 -148 -57 -230 -129 -151 -133 -234 -169 -390 -169 -130 0
-209 26 -334 109 -94 63 -136 107 -201 211 -114 184 -125 390 -28 553 19 33
66 95 104 138 37 44 81 106 98 139 78 161 80 389 7 950 -59 457 -69 586 -69
845 1 768 222 1381 726 2014 55 70 89 122 93 144 8 42 -14 94 -50 117 -29 19
-94 22 -124 6 -34 -18 -225 -262 -329 -421 -259 -394 -423 -801 -503 -1250
-38 -214 -45 -310 -45 -640 0 -352 3 -385 67 -880 36 -270 42 -342 42 -505 1
-232 -7 -261 -102 -369 -261 -294 -293 -631 -94 -963 157 -261 424 -425 717
-440 207 -11 382 56 554 212 114 103 140 110 376 109 166 0 236 -6 550 -47
198 -26 419 -51 490 -57 168 -13 537 -13 688 0 685 60 1298 314 1855 769 564
461 1001 1039 1217 1611 153 403 215 760 216 1226 0 271 -11 409 -68 849 -41
313 -47 385 -47 550 -1 231 6 258 101 367 144 165 213 319 221 493 16 360
-216 706 -574 855 -148 61 -330 77 -469 40z"/>
<path d="M3641 6321 c-85 -15 -127 -102 -86 -180 26 -52 60 -59 275 -59 213 0
245 6 276 54 22 32 24 92 5 126 -27 51 -57 59 -249 63 -97 2 -197 0 -221 -4z"/>
<path d="M2945 6201 c-366 -116 -686 -293 -1022 -567 -142 -116 -456 -430
-570 -571 -146 -180 -333 -464 -364 -552 -25 -70 38 -151 115 -151 60 0 84 22
157 147 144 247 301 446 544 688 242 242 434 395 681 540 167 98 390 195 564
245 141 41 170 66 170 151 0 33 -6 47 -34 75 -45 45 -85 44 -241 -5z"/>
<path d="M1465 5853 c-87 -22 -117 -126 -56 -192 92 -98 246 10 189 133 -19
43 -83 71 -133 59z"/>
<path d="M3281 1788 c-83 -44 -88 -173 -9 -214 36 -19 98 -18 126 2 30 21 52
66 52 109 0 76 -103 139 -169 103z"/>
<path d="M3693 1535 c-38 -16 -63 -60 -63 -112 0 -45 20 -77 60 -98 69 -36
148 -2 171 74 15 49 -7 103 -53 131 -38 23 -70 25 -115 5z"/>
<path d="M2955 1456 c-62 -28 -90 -95 -65 -156 30 -73 131 -95 188 -42 40 37
49 75 31 125 -23 66 -94 100 -154 73z"/>
<path d="M2455 1290 c-56 -23 -86 -95 -62 -151 20 -47 49 -70 96 -76 98 -13
167 98 112 181 -33 50 -92 69 -146 46z"/>
<path d="M3383 1213 c-32 -6 -80 -57 -85 -91 -11 -78 42 -142 119 -142 89 0
143 94 101 177 -21 41 -82 67 -135 56z"/>
<path d="M2865 1036 c-86 -38 -87 -169 -1 -210 46 -22 77 -20 117 7 119 80 14
262 -116 203z"/>
</g>
</svg>
